<svg xmlns="http://www.w3.org/2000/svg" viewBox="0 0 64 64"><defs><linearGradient id="a" x1="8" y1="5" x2="56" y2="60"><stop stop-color="#f6d4e7"/><stop offset=".52" stop-color="#b99bd5"/><stop offset="1" stop-color="#7250a3"/></linearGradient></defs><path fill="url(#a)" d="M32 29c-8-15-23-15-24-3-1 9 9 15 20 12-10 9-6 19 4 17 7-2 7-12 0-17 11 3 21-3 20-12-1-12-16-12-24 3 2-13-7-21-15-16-8 6 0 18 15 19-15 1-23 13-16 21 6 7 17-2 20-13 3 11 14 20 20 13 7-8-1-20-16-21 15-1 23-13 15-19-8-5-17 3-15 16Z"/><circle cx="32" cy="32" r="6" fill="#fff4fa"/></svg>
